<mxfile host="app.diagrams.net" modified="2020-10-15T10:11:37.783Z" agent="5.0 (Macintosh; Intel Mac OS X 10_15_4) AppleWebKit/537.36 (KHTML, like Gecko) Chrome/86.0.4240.75 Safari/537.36" etag="hLDurHJu3k9H61Gnh6Di" version="13.8.0" type="github">
  <diagram id="-QLBXsN8KKYSgsaxOuy0" name="Page-1">
    <mxGraphModel dx="1678" dy="840" grid="1" gridSize="10" guides="1" tooltips="1" connect="1" arrows="1" fold="1" page="1" pageScale="1" pageWidth="827" pageHeight="1169" math="0" shadow="0">
      <root>
        <mxCell id="0" />
        <mxCell id="1" parent="0" />
        <mxCell id="aVjjnwzVcJl4k6f1_9p4-2" value="Actor" style="shape=umlActor;verticalLabelPosition=bottom;verticalAlign=top;html=1;outlineConnect=0;" vertex="1" parent="1">
          <mxGeometry x="80" y="255" width="30" height="60" as="geometry" />
        </mxCell>
        <mxCell id="aVjjnwzVcJl4k6f1_9p4-3" value="Native Page" style="rounded=0;whiteSpace=wrap;html=1;" vertex="1" parent="1">
          <mxGeometry x="160" y="231" width="100" height="110" as="geometry" />
        </mxCell>
        <mxCell id="aVjjnwzVcJl4k6f1_9p4-4" value="RN&lt;br&gt;Flutter" style="rounded=0;whiteSpace=wrap;html=1;" vertex="1" parent="1">
          <mxGeometry x="366" y="230" width="100" height="110" as="geometry" />
        </mxCell>
        <mxCell id="aVjjnwzVcJl4k6f1_9p4-5" value="Native Page" style="rounded=0;whiteSpace=wrap;html=1;" vertex="1" parent="1">
          <mxGeometry x="580" y="230" width="100" height="110" as="geometry" />
        </mxCell>
        <mxCell id="aVjjnwzVcJl4k6f1_9p4-6" value="" style="endArrow=classic;html=1;entryX=0;entryY=0.5;entryDx=0;entryDy=0;" edge="1" parent="1" source="aVjjnwzVcJl4k6f1_9p4-2" target="aVjjnwzVcJl4k6f1_9p4-3">
          <mxGeometry width="50" height="50" relative="1" as="geometry">
            <mxPoint x="80" y="310" as="sourcePoint" />
            <mxPoint x="130" y="260" as="targetPoint" />
          </mxGeometry>
        </mxCell>
        <mxCell id="aVjjnwzVcJl4k6f1_9p4-7" value="" style="endArrow=classic;html=1;entryX=0;entryY=0.5;entryDx=0;entryDy=0;exitX=1;exitY=0.5;exitDx=0;exitDy=0;" edge="1" parent="1" source="aVjjnwzVcJl4k6f1_9p4-3" target="aVjjnwzVcJl4k6f1_9p4-4">
          <mxGeometry width="50" height="50" relative="1" as="geometry">
            <mxPoint x="260" y="280" as="sourcePoint" />
            <mxPoint x="310" y="280" as="targetPoint" />
          </mxGeometry>
        </mxCell>
        <mxCell id="aVjjnwzVcJl4k6f1_9p4-8" value="" style="endArrow=classic;html=1;exitX=1;exitY=0.5;exitDx=0;exitDy=0;" edge="1" parent="1" source="aVjjnwzVcJl4k6f1_9p4-4" target="aVjjnwzVcJl4k6f1_9p4-5">
          <mxGeometry width="50" height="50" relative="1" as="geometry">
            <mxPoint x="436" y="280" as="sourcePoint" />
            <mxPoint x="486" y="280" as="targetPoint" />
          </mxGeometry>
        </mxCell>
        <mxCell id="aVjjnwzVcJl4k6f1_9p4-10" value="Route" style="text;html=1;strokeColor=none;fillColor=none;align=center;verticalAlign=middle;whiteSpace=wrap;rounded=0;" vertex="1" parent="1">
          <mxGeometry x="290" y="255" width="40" height="25" as="geometry" />
        </mxCell>
        <mxCell id="aVjjnwzVcJl4k6f1_9p4-11" value="Route" style="text;html=1;strokeColor=none;fillColor=none;align=center;verticalAlign=middle;whiteSpace=wrap;rounded=0;" vertex="1" parent="1">
          <mxGeometry x="494" y="255" width="40" height="20" as="geometry" />
        </mxCell>
        <mxCell id="aVjjnwzVcJl4k6f1_9p4-13" value="1, Native端将{&quot;pid&quot;:pid, &quot;href&quot;:href}转Json字符串做为ext字段放在options中，格式如下: ext=&quot;{\&quot;pid\&quot;:pid, \&quot;href\&quot;:href}&quot;&lt;br&gt;2, RN端收到参数，添加到http header，格式{pid: pid, refer: href}" style="rounded=0;whiteSpace=wrap;html=1;" vertex="1" parent="1">
          <mxGeometry x="120" y="380" width="380" height="60" as="geometry" />
        </mxCell>
        <mxCell id="aVjjnwzVcJl4k6f1_9p4-16" value="" style="endArrow=classic;html=1;" edge="1" parent="1" source="aVjjnwzVcJl4k6f1_9p4-10" target="aVjjnwzVcJl4k6f1_9p4-13">
          <mxGeometry width="50" height="50" relative="1" as="geometry">
            <mxPoint x="290" y="320" as="sourcePoint" />
            <mxPoint x="340" y="270" as="targetPoint" />
          </mxGeometry>
        </mxCell>
        <mxCell id="aVjjnwzVcJl4k6f1_9p4-17" value="" style="endArrow=classic;html=1;entryX=0.5;entryY=0;entryDx=0;entryDy=0;exitX=0.5;exitY=1;exitDx=0;exitDy=0;" edge="1" parent="1" source="aVjjnwzVcJl4k6f1_9p4-11" target="aVjjnwzVcJl4k6f1_9p4-18">
          <mxGeometry width="50" height="50" relative="1" as="geometry">
            <mxPoint x="513.41" y="290" as="sourcePoint" />
            <mxPoint x="513.9115000000002" y="460" as="targetPoint" />
          </mxGeometry>
        </mxCell>
        <mxCell id="aVjjnwzVcJl4k6f1_9p4-18" value="3，RN/Flutter跳转到Native页面，native获取当前RN/Flutter和pid和href添加到路由埋点中" style="rounded=0;whiteSpace=wrap;html=1;" vertex="1" parent="1">
          <mxGeometry x="324" y="460" width="380" height="60" as="geometry" />
        </mxCell>
      </root>
    </mxGraphModel>
  </diagram>
</mxfile>
